<svg viewBox="0 0 137 32" fill="none" xmlns="http://www.w3.org/2000/svg"><path fill-rule="evenodd" clip-rule="evenodd" d="M33.882 8.253c-1.965.154-3.761.901-5.04 2.099a7.715 7.715 0 0 0-1.978 3.094c-.516 1.488-.588 3.314-.196 4.856a7.41 7.41 0 0 0 2.098 3.516c.518.476.884.741 1.582 1.146a8.27 8.27 0 0 0 2.68 1.016c1.514.3 3.387.2 4.777-.25 1.514-.492 2.89-1.49 3.77-2.734 1.18-1.67 1.67-4.019 1.295-6.215-.16-.94-.461-1.73-1-2.626-.308-.51-.567-.876-.84-1.186a7.37 7.37 0 0 0-2.443-1.857 8.855 8.855 0 0 0-3.274-.861 14.712 14.712 0 0 0-1.431.002Zm1.504 1.226c.594.078.968.232 1.325.544.53.463.924 1.068 1.216 1.867.29.786.449 1.596.556 2.823.044.496.05 2.193.01 2.67-.06.73-.149 1.368-.26 1.858-.21.934-.585 1.828-.993 2.37-.537.716-1.182 1.124-2.002 1.271a4.575 4.575 0 0 1-1.258 0 2.88 2.88 0 0 1-1.647-.886 2.94 2.94 0 0 1-.56-.791c-.51-1.024-.784-2.268-.874-3.976a23.583 23.583 0 0 1 .022-2.08c.094-1.212.276-2.152.578-2.98.126-.349.426-.943.614-1.22.592-.868 1.386-1.367 2.357-1.477.243-.028.668-.024.916.007ZM5.313 9.133c1.02-.509 2.106-.795 3.363-.89.194-.014 1.357.006 1.55.025.336.037.791.118 1.107.197.57.144 1.367.43 1.823.656.087.043.165.078.173.078.01 0 .163-.126.34-.28l.319-.281h.927l.01.19c.012.185.014.19.08.257a.407.407 0 0 1 .09.143c.024.081.108 4.111.097 4.576-.004.2-.012.253-.045.307-.061.103-.165.146-.351.146-.175-.002-.275-.033-.355-.113-.043-.042-.069-.05-.21-.054l-.159-.006-.121-.358c-.602-1.77-1.389-3.059-2.27-3.717-.466-.346-1.215-.559-1.978-.559-1.84 0-3.137 1.146-3.76 3.323-.277.967-.4 2-.4 3.353-.002 1.522.147 2.54.527 3.618.192.548.412.99.632 1.27a3.766 3.766 0 0 0 2.28 1.379c1.098.215 2.27.054 3.194-.437.714-.38 1.437-1.047 2.033-1.873.16-.223.508-.751.522-.79.004-.011.216.105.47.256l.465.274-.039.076-.04.077.06.08c.12.164.06.338-.302.903-.755 1.175-1.645 1.97-2.82 2.517-1 .467-1.947.66-3.24.66a8.75 8.75 0 0 1-1.344-.089c-1.204-.168-2.21-.534-3.324-1.203-1.182-.712-2.037-1.62-2.647-2.81a7.343 7.343 0 0 1-.55-1.374c-.364-1.232-.434-2.699-.193-4.024a7.78 7.78 0 0 1 2.165-4.14 7.011 7.011 0 0 1 1.921-1.363Zm72.065-1.589c.12-.007 1.264-.07 2.543-.135 1.278-.066 2.384-.122 2.46-.124.136-.002.138-.002.22.08.083.079.085.083.085.21 0 .114.005.132.047.159a.339.339 0 0 1 .082.104c.037.072.037.246.047 6.97v.137c.01 6.599.014 7.042.045 7.16.02.07.043.149.055.176.06.152.626.396 1.096.476l.206.034.006.178c.004.161.01.18.051.206.108.071.147.307.07.43a.312.312 0 0 1-.113.098c-.069.035-.194.037-3.014.042-2.135.004-2.97-.002-3.049-.017a.295.295 0 0 1-.18-.097l-.073-.075h-.394v-.287c0-.156.006-.33.012-.387.011-.094.016-.1.068-.1.03 0 .198-.018.375-.04.482-.06.767-.17.931-.353.087-.099.12-.164.165-.337.037-.145.037-.269.037-6.224 0-6.03 0-6.08-.039-6.242a1.629 1.629 0 0 0-.324-.635c-.123-.133-.24-.192-.607-.294a23.665 23.665 0 0 1-.345-.099.49.49 0 0 1-.204-.102c-.061-.056-.1-.072-.243-.097a2.166 2.166 0 0 0-.203-.031c-.033 0-.035-.03-.035-.385V7.56l.222-.016Zm7.511 0c.12-.007 1.265-.07 2.544-.135 1.278-.066 2.384-.122 2.46-.124.136-.002.138-.002.22.08.082.079.084.085.084.203 0 .114.006.127.067.187.04.04.075.1.088.153.016.066.022 1.85.022 6.935.002 3.96.01 6.927.02 7.04.01.105.035.25.056.32.036.107.053.136.124.186.212.149.643.31.996.368l.206.034.006.178c.006.165.008.178.055.21.066.042.105.14.105.263s-.05.212-.152.26c-.07.036-.195.038-3.014.043-2.135.004-2.97-.002-3.05-.017a.296.296 0 0 1-.18-.097l-.072-.075h-.394v-.2c0-.108.006-.282.014-.387l.011-.187h.055c.03 0 .198-.018.375-.04.482-.06.766-.17.931-.353.086-.099.12-.164.165-.337.037-.145.037-.269.037-6.224 0-6.03 0-6.08-.04-6.242a1.629 1.629 0 0 0-.323-.635c-.123-.133-.241-.192-.608-.294a23.665 23.665 0 0 1-.345-.099.49.49 0 0 1-.204-.102c-.06-.056-.1-.072-.243-.097a2.166 2.166 0 0 0-.202-.031c-.033 0-.035-.03-.035-.385V7.56l.221-.016Zm31.713-.232c-.692.13-1.311.608-1.564 1.207a1.697 1.697 0 0 0-.13.767c.02.481.171.832.516 1.19.18.185.345.31.596.445l.114.063.107.058.067.037c.145.08.385.163.575.198.208.038.614.04.817.002.781-.146 1.418-.728 1.563-1.426a1.97 1.97 0 0 0-.076-.997 4.888 4.888 0 0 0-.465-.772c-.278-.35-.7-.621-1.147-.737a2.992 2.992 0 0 0-.973-.035ZM16.606 9.46v-.822h8.392v.19c0 .129 0 .17.019.197.009.013.022.022.041.036.112.082.15.267.085.428-.06.147-.153.18-.704.254-.636.083-.992.209-1.214.427-.204.201-.292.426-.325.828-.026.296-.026 10.399 0 10.699.01.12.037.284.06.363.041.138.05.147.163.229.067.046.173.106.237.135.242.105.88.236 1.398.286l.24.022v.361l.066.058c.085.072.118.165.106.302-.012.124-.057.194-.165.248-.076.039-.115.039-3.929.039-3.773 0-3.855 0-3.93-.037a.285.285 0 0 1-.107-.093c-.032-.054-.034-.054-.234-.054h-.2l.004-.412.006-.41.167-.014.325-.023.126-.01c.665-.05.884-.089 1.108-.197.211-.103.339-.215.43-.383a.954.954 0 0 1 .04-.07c.09-.159.09-.369.089-4.719v-1.126c0-5.391 0-5.52-.038-5.662-.08-.306-.202-.46-.435-.546a6.023 6.023 0 0 0-.84-.222c-.374-.081-.456-.112-.52-.188-.034-.038-.077-.052-.252-.081l-.21-.033Zm29.984-.412.006.41.21.04c.178.038.217.051.268.103.07.07.163.101.483.169.55.116.9.236 1.02.354a.652.652 0 0 1 .12.172l.016.031a.898.898 0 0 1 .011.023c.078.16.078.358.078 4.93v1.841c0 4.475 0 4.687-.086 4.854a1.275 1.275 0 0 1-.013.025l-.023.043c-.114.226-.4.42-.75.507-.154.038-.64.108-1.08.155a4.344 4.344 0 0 0-.239.03c-.02.006-.025.105-.025.415v.406h.394l.073.075c.055.057.098.08.176.097.133.027 7.486.03 8.298.002 1.94-.068 3.212-.315 4.257-.832.886-.44 1.447-1.062 1.712-1.898.13-.406.157-.621.159-1.169 0-.427-.006-.509-.046-.7-.08-.397-.164-.608-.404-1.022a4.185 4.185 0 0 0-.49-.72c-.472-.559-1.149-.994-2.04-1.311a11.2 11.2 0 0 0-1.281-.35c-.157-.032-.277-.064-.273-.076.016-.045.184-.114.622-.254.253-.08.57-.19.702-.242 1.423-.56 2.202-1.366 2.366-2.445.044-.285.04-.747-.01-1.028-.082-.472-.166-.67-.544-1.283-.555-.895-1.667-1.433-3.426-1.656l-.056-.007h-.001c-.092-.012-.172-.022-.251-.03-.504-.056-1.015-.057-4.75-.063h-.526l-4.661-.008.004.412Zm8.035.78c.55.083.918.226 1.157.449.46.427.694 1.012.72 1.797.033.972-.222 1.703-.789 2.262-.29.287-.605.47-1.058.615-.406.13-.783.182-1.426.202l-.423.011-.014-.143c-.006-.08-.01-1.202-.006-2.494.006-1.945.012-2.363.033-2.419.085-.209.222-.284.565-.31a8.315 8.315 0 0 1 1.241.03Zm.163 6.586c.586.09 1.094.263 1.386.472.169.122.434.397.561.587.359.53.518 1.118.518 1.921 0 .368-.024.627-.089.942-.245 1.198-1.062 2.01-2.225 2.208-.259.044-.81.043-1.059-.002-.373-.066-.75-.228-.947-.406l-.02-.018-.03-.027c-.092-.095-.092-.28-.091-2.385v-.407c0-2.008.006-2.542.025-2.608a.452.452 0 0 1 .238-.261c.133-.058.301-.07.904-.062.447.004.613.013.829.046Zm51.821-3.249V9.973h3.471v.389l.076.071a.296.296 0 0 1 .098.175c.014.07.022.487.022 1.3 0 .658.006 1.21.012 1.226.011.028.151.031 1.392.031h1.38v.198c0 .197 0 .2.055.23.1.056.131.153.131.414 0 .267-.031.358-.149.426-.064.037-.111.039-1.252.05-.92.008-1.202.016-1.255.035a.437.437 0 0 0-.244.213l-.041.089-.006 2.892c-.005 3.077-.004 3.236.087 3.673.098.488.198.648.482.786.343.164.673.193 1.526.125.254-.019.682-.07.758-.089.045-.01.045-.007.045.211 0 .207.002.22.044.238a.287.287 0 0 1 .088.085c.037.055.045.093.045.21 0 .23-.073.348-.275.45a9.825 9.825 0 0 1-1.051.374c-.556.164-.98.224-1.676.24-.729.015-1.214-.04-1.682-.192a5.294 5.294 0 0 1-1.002-.507c-.485-.325-.873-.923-1.02-1.567l-.013-.058-.001-.002a6.947 6.947 0 0 1-.019-.087c-.052-.252-.053-.515-.061-3.105l-.002-.566c-.006-1.875-.02-3.415-.027-3.425a8.122 8.122 0 0 0-.657-.025c-.414-.008-.659-.02-.693-.033a.367.367 0 0 1-.101-.08c-.017-.02-.027-.033-.041-.042-.03-.019-.072-.019-.207-.019h-.198v-1.142H106.609Zm-8.49-.329c-1.603.15-3.038.87-3.942 1.978a5.518 5.518 0 0 0-1.237 3.856c.104 1.718.741 3.057 1.88 3.953.253.2.399.296.808.536.522.308.957.496 1.494.649 1.047.296 2.477.354 3.524.143.816-.167 1.784-.62 2.472-1.161.357-.28.969-.939 1.112-1.198.073-.131.073-.252-.002-.346l-.055-.072.043-.07c.022-.038.034-.075.026-.083-.035-.029-.79-.56-.798-.56a1.05 1.05 0 0 0-.102.129c-.547.762-1.329 1.387-2.033 1.621a3.622 3.622 0 0 1-1.24.157c-.794-.039-1.382-.211-1.872-.55a3.055 3.055 0 0 1-.55-.526c-.364-.488-.666-1.633-.674-2.554-.002-.234.002-.269.041-.34a.436.436 0 0 1 .238-.206c.057-.019.794-.027 3.376-.035h.034c3.225-.01 3.27-.01 3.337-.048.147-.085.18-.29.141-.86a5.076 5.076 0 0 0-.276-1.402c-.095-.267-.2-.481-.424-.855a3.657 3.657 0 0 0-.645-.832 3.883 3.883 0 0 0-1.167-.809c-.566-.269-1.057-.4-1.804-.487a16.301 16.301 0 0 0-1.706-.028Zm1.2 1.101c.111.035.145.059.239.161.107.116.245.352.323.557.163.416.255 1.063.288 2.017l.014.383-.616.002c-.339.002-1.035.007-1.547.015a35.64 35.64 0 0 1-.984.004l-.055-.006v-.178c0-.188.041-.588.09-.872.202-1.177.702-1.903 1.445-2.1.197-.054.61-.044.802.018Zm28.891-.431c.48-.321 1.164-.556 1.88-.64a6.959 6.959 0 0 1 1.206 0c1.014.116 1.727.504 2.241 1.218.128.178.416.683.502.879.169.389.273.838.312 1.356.012.157.02 1.33.02 2.932 0 1.582.007 2.72.019 2.796.01.07.032.172.049.228.028.087.045.11.134.168.194.126.598.26.95.314l.2.03v.339l.077.076c.059.058.08.096.09.168.03.19-.059.32-.245.358-.143.03-5.565.029-5.71 0a.307.307 0 0 1-.176-.097l-.073-.075h-.4l.012-.38c.008-.208.016-.383.018-.384.004-.004.157-.024.343-.047.184-.023.392-.058.461-.08a.678.678 0 0 0 .456-.45c.067-.225.071-.38.063-3.206l-.001-.287c-.005-2.309-.006-2.591-.07-2.858l-.03-.116-.011-.038a2.144 2.144 0 0 0-.327-.656c-.173-.213-.453-.294-.965-.277-.343.01-.549.052-.859.176-.596.24-1.209.768-1.382 1.19l-.045.108-.006 2.777c-.006 2.875-.004 3.009.075 3.257.035.112.049.131.133.183.188.12.545.244.843.294l.141.024v.17c0 .16.002.172.051.203.077.049.132.19.122.304a.27.27 0 0 1-.165.238c-.074.038-.121.039-2.889.044h-.021c-2.053.004-2.862-.002-2.941-.017a.295.295 0 0 1-.18-.097l-.073-.075h-.394v-.2c0-.108.006-.28.012-.38l.014-.186.345-.043c.555-.07.788-.145.968-.311a.78.78 0 0 0 .224-.391c.033-.118.035-.289.035-3.423 0-3.061-.002-3.307-.033-3.42a1.693 1.693 0 0 0-.292-.558c-.14-.17-.226-.22-.577-.32-.249-.07-.31-.097-.38-.172-.043-.046-.081-.06-.236-.085a3.675 3.675 0 0 0-.202-.031 2.69 2.69 0 0 1-.015-.385v-.383l.153-.012c.082-.006 1.225-.07 2.539-.141l2.39-.128.086.083.087.084v.14c0 .123.006.144.041.163a.305.305 0 0 1 .082.11c.038.082.043.138.053.523l.01.434.386-.33c.434-.369.636-.528.875-.688Zm-62.997-.389c-1.235.066-2.339.128-2.454.135l-.212.014v.766l.104.014c.247.029.308.05.374.12.057.062.09.075.355.143.163.043.343.099.402.13.19.094.412.398.484.663.03.114.034.362.046 2.94 0 .158 0 .307.002.45.009 2.115.01 2.442.076 2.756.011.058.026.115.042.182l.019.075c.16.646.42 1.116.849 1.538.23.225.274.258.698.515.341.207.714.352 1.086.422.56.108 1.453.098 2.031-.02.624-.126 1.46-.541 1.973-.977l.22-.188v-.001l.098-.084c.078-.066.166-.133.2-.15l.059-.032v.966l.082.07c.074.064.092.07.208.07.112 0 .13.005.164.048.051.064.124.1.232.116.08.01 4.182-.225 4.392-.254.225-.029.333-.131.333-.313 0-.114-.033-.196-.106-.252-.045-.035-.049-.05-.055-.228l-.005-.192-.206-.013c-.585-.04-.877-.13-1.124-.345-.106-.093-.135-.143-.184-.303-.033-.105-.035-.387-.045-4.176-.01-3.77-.012-4.069-.043-4.137a.405.405 0 0 0-.085-.118c-.04-.039-.05-.068-.06-.191-.012-.138-.018-.151-.089-.219l-.072-.072-2.263.12c-1.243.066-2.408.13-2.588.142l-.33.02v.386c0 .352.002.383.036.383.017 0 .108.008.198.02.149.017.168.023.23.085.08.083.129.098.46.145.373.052.496.096.602.21.094.103.202.304.253.479.033.108.035.319.041 3.092l.004 2.975-.063.091c-.09.132-.355.395-.539.538-.524.407-.992.573-1.604.577-.247 0-.318-.006-.449-.043a1.4 1.4 0 0 1-.584-.32.626.626 0 0 1-.189-.276 2.656 2.656 0 0 1-.154-.592c-.03-.18-.034-.565-.044-3.798-.011-3.44-.013-3.603-.047-3.67a.328.328 0 0 0-.084-.103c-.041-.027-.047-.045-.047-.163 0-.116-.008-.14-.059-.21l-.059-.082-.133.002c-.073.002-1.141.058-2.377.124Zm48.677.135c.119-.007 1.235-.07 2.474-.135 1.241-.066 2.316-.122 2.392-.124.135-.002.137-.002.22.08.082.079.084.083.084.212 0 .118.004.134.049.163a.364.364 0 0 1 .092.12l.045.09.01 4.17v.006c.01 4.157.01 4.164.051 4.294.024.072.055.15.075.178.104.159.66.381 1.139.459l.147.023v.168c0 .16.002.172.049.201.086.056.127.145.127.273 0 .141-.043.22-.149.273-.074.035-.158.037-3.105.037-2.92 0-3.032-.002-3.104-.037a.277.277 0 0 1-.106-.091l-.034-.056h-.423v-.238c0-.132.006-.306.012-.387.013-.145.015-.149.064-.149.128 0 .692-.081.816-.118.312-.093.531-.256.627-.464l.03-.067c.082-.196.08-.428.074-3.62-.005-3.1-.007-3.254-.041-3.355a1.442 1.442 0 0 0-.302-.505c-.137-.143-.243-.193-.653-.307-.259-.072-.319-.099-.404-.178-.051-.049-.098-.064-.27-.099l-.208-.039v-.764l.222-.014Z" fill="url(#cio-bulletin_svg__a)"/><defs><radialGradient id="cio-bulletin_svg__a" cx="0" cy="0" r="1" gradientUnits="userSpaceOnUse" gradientTransform="rotate(-7.177 191.84 4.027) scale(136.066 1087.53)"><stop stop-color="#C09898"/><stop offset="1" stop-color="#E8C0B0"/></radialGradient></defs></svg>