<svg viewBox="0 0 136 38" fill="none" xmlns="http://www.w3.org/2000/svg"><g clip-path="url(#coupa_svg__a)"><path fill-rule="evenodd" clip-rule="evenodd" d="M57.203 27.54a9.689 9.689 0 0 1-5 1.29c-5.67 0-9-3.94-9-10.62 0-4.75 1.81-7.88 4.23-9.53a9.69 9.69 0 0 1 5.1-1.53 8.87 8.87 0 0 1 4 .92 9.81 9.81 0 0 1 2 1.45l-2.62 3.54a5.2 5.2 0 0 0-3.25-1.61c-2.42 0-3.5 2.09-3.5 6.92 0 2.69.36 4.3 1 5.19a3.11 3.11 0 0 0 2.45 1.12 5.54 5.54 0 0 0 3.71-1.68l.32-.29 2.43 3.3a8.277 8.277 0 0 1-1.87 1.53Zm17.94-1.61a8.419 8.419 0 0 1-6.8 2.86c-5.59 0-9.25-4.19-9.25-10.66s3.7-10.78 9.25-10.78a8.64 8.64 0 0 1 7 3.1c1.65 1.93 2.37 4.18 2.37 7.52 0 3.54-.8 5.95-2.57 7.96Zm-4.39-13.51a2.85 2.85 0 0 0-2.33-1.09 2.9 2.9 0 0 0-2.77 2.09 14.472 14.472 0 0 0-.58 4.59c-.089 1.757.145 3.516.69 5.19a3 3 0 0 0 2.73 1.69c2.33 0 3.34-2.1 3.34-7 .01-2.74-.35-4.55-1.08-5.47ZM91.27 26.91c.342.8.895 1.492 1.6 2l3.83-2.17A6 6 0 0 1 95.45 23V7.27L90.3 8.36v14.48a4 4 0 0 1-3.34 2 2.17 2.17 0 0 1-1.89-1 8.16 8.16 0 0 1-.44-3.38V7.23l-5.31 1v13.24a12.378 12.378 0 0 0 .44 4.1c.69 1.97 3.18 3.34 6.08 3.34a7.73 7.73 0 0 0 5.43-2Zm22.721-.46a7.332 7.332 0 0 1-5.51 2.34 8.648 8.648 0 0 1-4.3-1.09c.069.56.096 1.126.08 1.69v6.44l-5.19 1.36V13.38a26.2 26.2 0 0 0-.32-5.19l4.78-.84c.19.629.311 1.276.36 1.93a6.904 6.904 0 0 1 5.07-1.93 7.38 7.38 0 0 1 4.11 1.25c2.22 1.48 3.83 4.14 3.83 8.89-.05 4.42-.78 6.67-2.91 8.96Zm-3.54-13a2.493 2.493 0 0 0-2.57-1.73 5 5 0 0 0-3.58 1.57v10a5.08 5.08 0 0 0 3 1.2c2.66 0 3.7-1.81 3.7-6.51a14.747 14.747 0 0 0-.55-4.52v-.01Zm19.872 13.45a5.768 5.768 0 0 0 2.89 2.49l2.81-3.3c-1.81-1.37-1.93-2.33-1.93-4.58l.12-6.92a9.583 9.583 0 0 0-.36-3.7c-.81-2.29-3.18-3.58-6.64-3.58a13.848 13.848 0 0 0-5.63 1.21 19.187 19.187 0 0 0-3.34 1.69l2.3 3.86c2.26-1.49 4.27-2.34 6-2.34 1.97 0 2.41.77 2.41 3.06v.85a10.039 10.039 0 0 0-1.21-.05c-6.55 0-9.89 2.26-9.89 7.08 0 4.11 2.49 6.44 7.08 6.44a7.05 7.05 0 0 0 4.14-1.13 10.11 10.11 0 0 0 1.25-1.08Zm-6.69-4.38c0-2.45 1.26-3.13 5-3.13h.27l-.08 4.42a3.92 3.92 0 0 1-2.81 1.41 2.455 2.455 0 0 1-2.277-1.701c-.103-.322-.138-.662-.103-.998Z" fill="url(#coupa_svg__b)"/><path d="M31.16 15.32a47.76 47.76 0 0 0-2-.9c.66-.13 1.34-.29 2-.48 4.65-1.26 7.62-3.26 6.91-4.53-.71-1.27-4.65-1.32-9.1-.27-.64.15-1.26.32-1.86.5.31-.46.62-.93.9-1.42 1.88-3.31 2.24-6.14 1-6.67-1.24-.53-3.77 1.32-5.94 4.43-.32.47-.61.94-.88 1.41-.14-.52-.31-1-.5-1.56C20.44 2.31 18.41-.11 17.07.1c-1.34.21-1.77 3.12-.74 6.83.16.55.33 1.09.53 1.61-.59-.32-1.17-.62-1.79-.86-4.3-2.06-8.52-2.85-9.59-1.8-1.07 1.05 1.52 3.8 6.09 6.08.666.327 1.316.627 1.95.9-.75.13-1.54.29-2.34.48-6 1.43-11.26 4-11.21 5.76.05 1.76 5.77 1.81 12.28 0 .86-.23 1.69-.49 2.47-.75-.5.63-1 1.32-1.51 2-4 5.8-6.25 12.19-4.39 13.31 1.86 1.12 6.83-3.78 10.39-9.98.45-.79.85-1.55 1.2-2.29.16.78.36 1.59.59 2.44 1.85 6.63 5.28 12.11 7.32 11.26 2.04-.85 1.46-7.2-.79-13.36-.29-.79-.59-1.53-.9-2.23.67.4 1.38.78 2.12 1.16 5.49 2.76 10.51 3.68 11 2 .49-1.68-3.5-4.9-8.59-7.34Z" fill="#A7A1CF"/><path d="M16.288 17.25c-.58.2-1.21.39-1.86.57-1.736.479-3.514.79-5.31.93-4.46 3.45-7.56 7.22-6.69 8.66.87 1.44 5.22-.11 9.92-3.2a26.116 26.116 0 0 1 2.84-5.42c.37-.55.74-1.06 1.1-1.54ZM15.27 13.03c-.5-.21-1-.44-1.52-.7a18.99 18.99 0 0 1-3.59-2.28c-4.53-.14-8.29.57-8.83 1.84-.54 1.27 2.35 2.66 6.74 3.39a27.114 27.114 0 0 1 5.42-1.87c.58-.15 1.21-.27 1.78-.38ZM17.787 9.61c-.16-.42-.31-.85-.44-1.29a11.998 11.998 0 0 1-.51-3.34c-2.51-2.22-5-3.42-6.09-2.87-1.09.55-.57 2.65 1.22 5.2 1.533.353 3.02.883 4.43 1.58.49.23.95.48 1.39.72ZM25.922 10.48c.48-.15 1-.29 1.49-.41 1.31-.332 2.65-.526 4-.58 2.37-2.17 3.38-4.18 2.49-4.92-.89-.74-3.16-.15-5.83 1.33a11.802 11.802 0 0 1-1.39 3.42c-.26.36-.5.79-.76 1.16ZM20.651 19.5c-.26.54-.57 1.11-.9 1.68a27.587 27.587 0 0 1-3.3 4.58c-.52 5.84.36 10.86 2.34 11 1.98.14 3.79-4.4 4.65-9.89a23.634 23.634 0 0 1-2.37-5.57c-.16-.62-.3-1.22-.42-1.8ZM22.068 8.68c.21-.39.45-.77.7-1.15a14.06 14.06 0 0 1 2.24-2.62c-.07-2.81-.89-4.81-2-4.93-1.11-.12-2.31 1.51-3 4.08a12.729 12.729 0 0 1 1.66 3.34c.15.42.28.85.4 1.28ZM40.169 15.3c-.19-1.2-3.09-2.43-6.93-3.09a17.421 17.421 0 0 1-4.17 1.67c-.54.15-1.07.27-1.6.38.52.2 1 .44 1.58.7a24.288 24.288 0 0 1 4.02 2.43c4.31.06 7.31-.8 7.1-2.09ZM25.422 18.11c.23.53.45 1.08.66 1.67a24.68 24.68 0 0 1 1.24 5.07c3.81 3.77 7.61 5.92 8.72 4.63 1.11-1.29-.75-4.85-3.81-8.56a23.003 23.003 0 0 1-5.16-1.93c-.61-.31-1.15-.58-1.65-.88Z" fill="#E0D7F5"/><path d="M33.07 17.39a24.293 24.293 0 0 0-4.08-2.43 24.1 24.1 0 0 0-1.58-.71c.53-.1 1.06-.22 1.6-.37a17.421 17.421 0 0 0 4.21-1.67c1.17-.7 1.75-1.41 1.47-1.94s-1.55-.84-3.26-.78c-1.35.059-2.69.253-4 .58-.52.12-1 .26-1.49.41.26-.37.5-.76.73-1.16a11.581 11.581 0 0 0 1.4-3.42c.22-1.09.08-1.88-.45-2.11-.53-.23-1.55.18-2.6 1.11a13.667 13.667 0 0 0-2.25 2.62 12.73 12.73 0 0 0-.7 1.16c-.11-.42-.24-.85-.39-1.27a12.732 12.732 0 0 0-1.74-3.35c-.73-1-1.48-1.51-2.07-1.4-.59.11-1 1-1 2.33.011 1.132.183 2.257.51 3.34.13.44.28.87.44 1.29-.44-.24-.9-.49-1.39-.72a20.38 20.38 0 0 0-4.46-1.59c-1.53-.33-2.72-.3-3.15.16-.43.46.07 1.5 1.34 2.58a18.99 18.99 0 0 0 3.59 2.28c.51.26 1 .49 1.52.7-.57.11-1.17.23-1.79.38a27.111 27.111 0 0 0-5.41 1.87c-1.79.86-2.91 1.78-2.84 2.49.07.71 1.64 1.13 3.91 1a28.225 28.225 0 0 0 5.3-.93c.65-.18 1.28-.37 1.86-.57-.36.48-.73 1-1.1 1.54a26.116 26.116 0 0 0-2.84 5.42c-.73 2-.84 3.59-.08 4 .76.41 2.46-.58 4.18-2.47a27.593 27.593 0 0 0 3.3-4.58c.33-.57.64-1.14.9-1.68.12.58.27 1.18.45 1.8a23.625 23.625 0 0 0 2.34 5.53c1.07 1.77 2.2 2.8 3 2.49.8-.31 1.15-2.12.85-4.47a24.69 24.69 0 0 0-1.23-5.07c-.21-.59-.43-1.14-.66-1.67.5.3 1 .59 1.61.88 1.649.851 3.395 1.499 5.2 1.93 1.74.38 3 .29 3.22-.38.22-.67-.7-1.86-2.37-3.15Z" fill="#F8F3FF"/></g><defs><linearGradient id="coupa_svg__b" x1="43" y1="7" x2="136" y2="37" gradientUnits="userSpaceOnUse"><stop stop-color="#FBF6FF"/><stop offset="1" stop-color="#DADBFF"/></linearGradient><clipPath id="coupa_svg__a"><path fill="#fff" d="M0 0h136v38H0z"/></clipPath></defs></svg>