<svg width="16" height="16" viewBox="0 0 16 16" fill="none" xmlns="http://www.w3.org/2000/svg">
<path d="M3.82969 15.3006V5.44839H0.554962V15.3006H3.83003H3.82969ZM2.19301 4.10347C3.33473 4.10347 4.04553 3.34694 4.04553 2.40148C4.02416 1.43449 3.33473 0.699066 2.21472 0.699066C1.09394 0.699066 0.361938 1.43449 0.361938 2.4014C0.361938 3.34685 1.07248 4.10338 2.17155 4.10338H2.19275L2.19301 4.10347ZM5.64229 15.3006H8.91676V9.79928C8.91676 9.50521 8.93813 9.21038 9.02464 9.00034C9.26126 8.41178 9.80007 7.80254 10.7049 7.80254C11.8896 7.80254 12.3637 8.70593 12.3637 10.0305V15.3006H15.6381V9.65164C15.6381 6.62559 14.0228 5.21741 11.8684 5.21741C10.102 5.21741 9.32623 6.20467 8.89522 6.87709H8.91702V5.44873H5.64246C5.6852 6.37299 5.64221 15.3009 5.64221 15.3009L5.64229 15.3006Z" fill="#0E0A0F"/>
</svg>
