<svg viewBox="0 0 140 30" fill="none" xmlns="http://www.w3.org/2000/svg"><path d="M140 13.571v-2.47h-3.058V7.257l-.103.032-2.871.882-.057.017V11.1h-4.533V9.48c0-.756.169-1.333.5-1.719.329-.38.8-.574 1.401-.574.432 0 .879.102 1.329.303l.112.05V4.938l-.053-.02c-.419-.15-.99-.227-1.698-.227-.892 0-1.702.195-2.409.58a4.128 4.128 0 0 0-1.653 1.641c-.388.7-.585 1.51-.585 2.406V11.1h-2.129v2.471h2.129v10.412h3.056V13.57h4.533v6.617c0 2.724 1.281 4.105 3.806 4.105.415 0 .852-.049 1.298-.144.454-.098.763-.196.945-.301l.04-.024V21.33l-.124.082c-.166.111-.373.202-.615.27a2.325 2.325 0 0 1-.604.102c-.591 0-1.029-.16-1.3-.475-.275-.319-.414-.876-.414-1.656v-6.082H140Zm-22.632 8.214c-1.109 0-1.984-.37-2.6-1.097-.62-.73-.934-1.773-.934-3.097 0-1.366.314-2.435.934-3.179.617-.739 1.483-1.114 2.575-1.114 1.06 0 1.903.359 2.508 1.066.607.71.915 1.77.915 3.153 0 1.399-.29 2.473-.861 3.192-.568.713-1.421 1.076-2.537 1.076Zm.136-10.995c-2.116 0-3.797.622-4.996 1.85-1.198 1.228-1.805 2.927-1.805 5.05 0 2.017.593 3.64 1.762 4.822s2.761 1.78 4.729 1.78c2.052 0 3.699-.63 4.897-1.875 1.198-1.243 1.805-2.926 1.805-5 0-2.049-.569-3.683-1.693-4.857-1.124-1.175-2.705-1.77-4.699-1.77Zm-11.729 0c-1.439 0-2.63.37-3.54 1.098-.915.733-1.379 1.695-1.379 2.858 0 .605.1 1.142.297 1.598.199.457.506.86.914 1.197.404.335 1.029.686 1.857 1.043.696.288 1.215.531 1.545.723.323.188.551.376.68.56.126.18.19.427.19.73 0 .866-.646 1.287-1.975 1.287-.493 0-1.055-.103-1.671-.307a6.278 6.278 0 0 1-1.711-.87l-.126-.092v2.954l.046.021c.433.2.978.37 1.62.503.642.133 1.225.2 1.731.2 1.562 0 2.82-.371 3.738-1.104.924-.738 1.392-1.722 1.392-2.926 0-.869-.252-1.613-.749-2.214-.493-.595-1.35-1.142-2.544-1.626-.951-.383-1.561-.701-1.813-.945-.242-.236-.365-.57-.365-.993 0-.374.152-.675.464-.917.314-.245.752-.37 1.3-.37.51 0 1.031.082 1.549.24.518.158.972.37 1.352.63l.125.085V11.35l-.048-.02c-.35-.151-.812-.28-1.373-.385a8.349 8.349 0 0 0-1.506-.156ZM92.888 21.785c-1.109 0-1.984-.37-2.6-1.097-.62-.73-.934-1.772-.934-3.097 0-1.366.314-2.435.935-3.179.616-.739 1.482-1.114 2.575-1.114 1.06 0 1.903.359 2.507 1.066.608.71.916 1.77.916 3.153 0 1.399-.29 2.473-.862 3.192-.567.713-1.42 1.076-2.537 1.076Zm.137-10.995c-2.117 0-3.798.622-4.996 1.85-1.198 1.228-1.806 2.927-1.806 5.05 0 2.018.594 3.64 1.763 4.822 1.17 1.182 2.76 1.78 4.729 1.78 2.051 0 3.7-.63 4.897-1.875 1.198-1.243 1.805-2.926 1.805-5 0-2.049-.57-3.683-1.694-4.857-1.124-1.175-2.705-1.77-4.698-1.77ZM81.584 13.33v-2.23h-3.019v12.881h3.019v-6.59c0-1.12.253-2.04.753-2.736.493-.687 1.15-1.035 1.952-1.035.272 0 .577.045.908.134.327.088.564.185.704.286l.127.092v-3.055l-.05-.021c-.28-.12-.678-.18-1.181-.18-.759 0-1.438.244-2.02.726-.51.424-.879 1.004-1.16 1.728h-.033Zm-8.425-2.541c-1.386 0-2.62.298-3.672.886a5.958 5.958 0 0 0-2.421 2.499c-.552 1.066-.832 2.312-.832 3.702 0 1.217.272 2.334.809 3.318a5.69 5.69 0 0 0 2.259 2.293c.96.534 2.07.805 3.3.805 1.435 0 2.66-.288 3.642-.855l.04-.023v-2.776l-.127.093a5.664 5.664 0 0 1-1.477.771c-.534.187-1.02.282-1.447.282-1.184 0-2.135-.372-2.826-1.106-.691-.734-1.042-1.765-1.042-3.063 0-1.306.366-2.364 1.087-3.145.718-.778 1.67-1.173 2.831-1.173.992 0 1.96.338 2.874 1.004l.127.092V11.47l-.041-.023c-.344-.194-.814-.353-1.397-.474a8.317 8.317 0 0 0-1.687-.182Zm-9.004.31h-3.019v12.882h3.02V11.1Zm-1.479-5.488c-.496 0-.93.17-1.286.507a1.673 1.673 0 0 0-.539 1.263c0 .494.18.91.534 1.24.351.327.786.493 1.292.493.505 0 .941-.166 1.297-.493a1.62 1.62 0 0 0 .54-1.24c0-.484-.176-.904-.525-1.25-.348-.345-.79-.52-1.313-.52Zm-7.532 4.538v13.832h3.08V6.007h-4.263l-5.42 13.351-5.26-13.351h-4.438v17.975h2.895V10.148h.1l5.554 13.834h2.185l5.467-13.832h.1Z" fill="url(#microsoft_svg__a)"/><path d="M14.202 14.255H0V0h14.202v14.255Z" fill="url(#microsoft_svg__b)"/><path d="M29.883 14.255H15.681V0h14.202v14.255Z" fill="url(#microsoft_svg__c)"/><path d="M14.202 30H0V15.745h14.202V30Z" fill="url(#microsoft_svg__d)"/><path d="M29.883 30H15.681V15.745h14.202V30Z" fill="url(#microsoft_svg__e)"/><defs><linearGradient id="microsoft_svg__a" x1="0" y1="10.5" x2="140" y2="30" gradientUnits="userSpaceOnUse"><stop offset=".179" stop-color="#FEF"/><stop offset="1" stop-color="#F7E6FF"/></linearGradient><linearGradient id="microsoft_svg__b" x1="0" y1="10.5" x2="140" y2="30" gradientUnits="userSpaceOnUse"><stop offset=".179" stop-color="#FEF"/><stop offset="1" stop-color="#F7E6FF"/></linearGradient><linearGradient id="microsoft_svg__c" x1="0" y1="10.5" x2="140" y2="30" gradientUnits="userSpaceOnUse"><stop offset=".179" stop-color="#FEF"/><stop offset="1" stop-color="#F7E6FF"/></linearGradient><linearGradient id="microsoft_svg__d" x1="0" y1="10.5" x2="140" y2="30" gradientUnits="userSpaceOnUse"><stop offset=".179" stop-color="#FEF"/><stop offset="1" stop-color="#F7E6FF"/></linearGradient><linearGradient id="microsoft_svg__e" x1="0" y1="10.5" x2="140" y2="30" gradientUnits="userSpaceOnUse"><stop offset=".179" stop-color="#FEF"/><stop offset="1" stop-color="#F7E6FF"/></linearGradient></defs></svg>