<svg viewBox="0 0 140 19" fill="none" xmlns="http://www.w3.org/2000/svg"><path d="M60.434 12.359h9.254l-4.89-8.234-8.975 14.858H51.72L62.649 1.164A2.534 2.534 0 0 1 64.782 0c.853 0 1.64.428 2.1 1.13l10.961 17.853h-4.085l-1.92-3.32h-9.37l-2.034-3.304Zm42.449 3.303V.188h-3.478v17.015c0 .462.18.924.508 1.25a1.7 1.7 0 0 0 1.264.547h15.801l2.052-3.32h-16.147m-57.365-2.774c3.38 0 6.088-2.858 6.088-6.367 0-3.51-2.708-6.35-6.088-6.35H30.356V19h3.463V3.509h11.47c1.607 0 2.92 1.352 2.92 3.03 0 1.677-1.313 3.047-2.92 3.047h-9.78l10.354 9.397H50.9l-6.957-6.094h1.575M9.025 18.983H19.51c4.988 0 8.992-4.194 8.992-9.397 0-5.204-4.02-9.415-8.992-9.415H9.025C4.037.171 0 4.382 0 9.586c0 5.203 4.037 9.397 9.025 9.397Zm10.239-3.304H9.254c-3.216 0-5.825-2.739-5.825-6.093 0-3.372 2.61-6.094 5.826-6.094h10.009c3.233 0 5.841 2.722 5.841 6.094 0 3.372-2.608 6.093-5.841 6.093Zm65.832 3.304h10.699l2.018-3.304H85.326c-3.233 0-5.842-2.739-5.842-6.093 0-3.372 2.61-6.094 5.842-6.094h10.157l2.051-3.32H85.08c-4.989 0-9.025 4.21-9.025 9.414.016 5.203 4.07 9.397 9.041 9.397Zm42.4-3.304c-2.674 0-4.922-1.866-5.611-4.433h14.817l2.035-3.32h-16.852c.689-2.568 2.953-4.434 5.611-4.434h10.174l2.035-3.32h-12.438c-4.972 0-9.009 4.21-9.009 9.414 0 5.186 4.037 9.397 9.009 9.397h10.698L140 15.679h-12.504Z" fill="url(#oracle_svg__a)"/><defs><linearGradient id="oracle_svg__a" x1="0" y1="0" x2="140" y2="16" gradientUnits="userSpaceOnUse"><stop stop-color="#FBF8FF"/><stop offset=".522" stop-color="#F4F2FF"/><stop offset="1" stop-color="#D7D6FE"/></linearGradient></defs></svg>