<svg viewBox="0 0 140 32" fill="none" xmlns="http://www.w3.org/2000/svg"><g clip-path="url(#procure-tech_svg__a)"><path fill-rule="evenodd" clip-rule="evenodd" d="M121.209 23.158v4.327c0 .606.243 1.187.677 1.615.433.429 1.021.67 1.634.67h2.941a2.34 2.34 0 0 0 1.637-.67 2.28 2.28 0 0 0 .676-1.619l-.004-6.907h3.938c1.933 0 3.788-.76 5.155-2.11a7.17 7.17 0 0 0 2.136-5.096V9.206a7.226 7.226 0 0 0-2.153-5.079A7.392 7.392 0 0 0 132.708 2h-4.211a7.39 7.39 0 0 0-5.138 2.128 7.223 7.223 0 0 0-2.152 5.08v1.073c0 1.26.506 2.47 1.406 3.363a4.849 4.849 0 0 0 3.397 1.402l5.819.022a2.55 2.55 0 0 0 1.791-.735c.475-.47.742-1.106.743-1.77v-2.518a2.49 2.49 0 0 0-.742-1.771 2.551 2.551 0 0 0-1.792-.734h-2.445a2.55 2.55 0 0 0-1.785.729 2.493 2.493 0 0 0-.749 1.76l-.021 3.107-1.089-.004a2.63 2.63 0 0 1-1.83-.767 2.574 2.574 0 0 1-.754-1.818v-1.34a5.27 5.27 0 0 1 1.569-3.73 5.39 5.39 0 0 1 3.772-1.55h4.213a5.39 5.39 0 0 1 3.772 1.55 5.263 5.263 0 0 1 1.569 3.73v4.161c0 1.4-.563 2.743-1.565 3.733a5.37 5.37 0 0 1-3.776 1.547h-6.938c-1.21 0-2.371.475-3.227 1.32a4.482 4.482 0 0 0-1.336 3.19Zm10.626-10.019-3.056-.004.02-3.097a.574.574 0 0 1 .173-.407.587.587 0 0 1 .412-.168h2.445a.59.59 0 0 1 .414.17c.11.108.172.255.172.409v2.518a.574.574 0 0 1-.17.408.59.59 0 0 1-.41.171Zm-8.68 14.066v-4.067h.003c0-.68.272-1.33.757-1.811a2.61 2.61 0 0 1 1.83-.753h1.071v6.631a.636.636 0 0 1-.644.637H123.8a.649.649 0 0 1-.456-.186.633.633 0 0 1-.189-.45ZM10.715 16.37c-.891-.88-2.28-1.313-4.164-1.299L0 15.092v14.677h2.955V24.68H6.4c1.913 0 3.333-.44 4.26-1.32a4.59 4.59 0 0 0 1.07-1.59c.24-.6.35-1.24.322-1.884a4.698 4.698 0 0 0-.302-1.894 4.74 4.74 0 0 0-1.035-1.622Zm-2.44 5.45a3.363 3.363 0 0 1-2.024.578l-3.297.002.022-5.047H6.25c.723-.03 1.436.17 2.034.57.284.24.504.543.642.886.138.342.19.712.15 1.078a2.21 2.21 0 0 1-.159 1.065c-.14.336-.36.634-.643.867Zm7.44-2.4v1.943a3.248 3.248 0 0 1 1.22-1.564 3.383 3.383 0 0 1 1.841-.485h.902v2.343h-.879a3.096 3.096 0 0 0-2.184.835c-.6.556-.899 1.524-.899 2.904v4.37h-2.892V19.42h2.891Zm6.506 9.926a5.843 5.843 0 0 0 2.805.654 5.89 5.89 0 0 0 2.826-.654 4.677 4.677 0 0 0 1.905-1.88 6.367 6.367 0 0 0 0-5.744 4.683 4.683 0 0 0-1.905-1.879 6.375 6.375 0 0 0-5.63 0 4.612 4.612 0 0 0-1.895 1.88 6.457 6.457 0 0 0 0 5.743 4.607 4.607 0 0 0 1.894 1.88Zm3.837-1.78c-.32.157-.675.232-1.032.217a2.166 2.166 0 0 1-1.351-.422 2.546 2.546 0 0 1-.835-1.14 4.47 4.47 0 0 1-.278-1.627 3.842 3.842 0 0 1 .644-2.29 2.09 2.09 0 0 1 .793-.682 2.119 2.119 0 0 1 1.027-.216c.357-.015.712.06 1.031.217.32.157.595.39.8.68a4.352 4.352 0 0 1 0 4.582 2.12 2.12 0 0 1-.8.681Zm15.58-1.535a4.119 4.119 0 0 1-.525 1.643c-.29.506-.683.946-1.155 1.291A5.686 5.686 0 0 1 36.522 30a5.844 5.844 0 0 1-2.805-.654 4.608 4.608 0 0 1-1.894-1.88 6.457 6.457 0 0 1 0-5.743 4.612 4.612 0 0 1 1.894-1.88 5.843 5.843 0 0 1 2.805-.655 5.64 5.64 0 0 1 3.426 1.035c.47.349.863.789 1.154 1.294.29.505.473 1.063.537 1.641h-3a2.34 2.34 0 0 0-.78-1.299 2.078 2.078 0 0 0-1.339-.454 2.119 2.119 0 0 0-1.027.217 2.09 2.09 0 0 0-.793.68 4.414 4.414 0 0 0 0 4.583 2.118 2.118 0 0 0 1.82.897c.486.01.96-.15 1.338-.453.399-.336.673-.792.782-1.299h2.999Zm7.902 2.449.043 1.288h2.892V19.421h-2.89v5.807a3.586 3.586 0 0 1-.268 1.479 1.904 1.904 0 0 1-.77.886 2.3 2.3 0 0 1-1.189.295 1.759 1.759 0 0 1-1.37-.601 3.099 3.099 0 0 1-.535-2.06V19.42h-2.89v6.23a5.16 5.16 0 0 0 .546 2.524c.309.6.799 1.09 1.402 1.404a4.11 4.11 0 0 0 1.841.422 4.331 4.331 0 0 0 1.841-.359 3.48 3.48 0 0 0 1.347-1.161Zm7.148-9.06v1.943a3.248 3.248 0 0 1 1.22-1.564 3.382 3.382 0 0 1 1.841-.485h.9v2.343h-.879a3.096 3.096 0 0 0-2.184.835c-.599.556-.898 1.524-.899 2.904v4.37h-2.89V19.42h2.891Zm7.623 7.719a2.532 2.532 0 0 1-.685-1.658l7.623.004v-.74a6.365 6.365 0 0 0-.664-3.01 4.505 4.505 0 0 0-1.84-1.901 5.624 5.624 0 0 0-2.741-.644 5.843 5.843 0 0 0-2.805.655 4.612 4.612 0 0 0-1.894 1.88 5.86 5.86 0 0 0-.674 2.871c-.023.997.225 1.98.717 2.851a4.91 4.91 0 0 0 1.969 1.89c.874.453 1.85.682 2.837.665.753.003 1.5-.13 2.205-.39a4.534 4.534 0 0 0 1.798-1.217c.516-.583.85-1.302.964-2.069h-2.87a1.667 1.667 0 0 1-.932 1.172 3.415 3.415 0 0 1-1.338.285 2.22 2.22 0 0 1-1.67-.644Zm.765-5.584a2.3 2.3 0 0 1 .927-.15 2.271 2.271 0 0 1 1.595.655c.464.439.743 1.035.781 1.669h-4.838a2.707 2.707 0 0 1 .749-1.668c.224-.221.492-.393.786-.506Zm3.623-4.183v-2.28h13.21v2.28h-5.117v12.396h-2.976V17.372h-5.117Zm14.046 9.767a2.532 2.532 0 0 1-.685-1.658l7.623.004v-.74a6.363 6.363 0 0 0-.664-3.01 4.504 4.504 0 0 0-1.84-1.901 5.624 5.624 0 0 0-2.74-.644 5.843 5.843 0 0 0-2.806.655 4.613 4.613 0 0 0-1.895 1.88 5.86 5.86 0 0 0-.674 2.871c-.022.997.225 1.98.717 2.851a4.909 4.909 0 0 0 1.97 1.89c.874.453 1.85.682 2.837.665.753.003 1.5-.13 2.205-.39a4.535 4.535 0 0 0 1.798-1.217c.516-.583.85-1.302.964-2.069h-2.87a1.691 1.691 0 0 1-.931 1.172 3.417 3.417 0 0 1-1.339.285 2.218 2.218 0 0 1-1.67-.644Zm.765-5.584a2.3 2.3 0 0 1 .926-.15h-.002a2.271 2.271 0 0 1 1.597.655c.465.439.744 1.035.782 1.669h-4.839a2.707 2.707 0 0 1 .75-1.668c.223-.221.491-.393.786-.506Zm17.476 4.476a4.096 4.096 0 0 1-.525 1.643 4.16 4.16 0 0 1-1.155 1.291A5.685 5.685 0 0 1 95.87 30a5.842 5.842 0 0 1-2.805-.654 4.608 4.608 0 0 1-1.894-1.88 6.457 6.457 0 0 1 0-5.743 4.612 4.612 0 0 1 1.894-1.88 5.843 5.843 0 0 1 2.805-.655 5.64 5.64 0 0 1 3.425 1.035c.47.349.863.789 1.154 1.294.291.505.474 1.063.537 1.641h-2.997a2.338 2.338 0 0 0-.781-1.299 2.078 2.078 0 0 0-1.339-.454 2.12 2.12 0 0 0-1.027.217 2.092 2.092 0 0 0-.792.68 4.414 4.414 0 0 0 0 4.583c.201.29.474.524.792.681.318.157.672.232 1.027.217.487.01.96-.152 1.339-.454.398-.336.673-.792.781-1.299h2.997Zm3.978-5.323-.042-5.616h-2.895v14.676h2.891V23.96a3.583 3.583 0 0 1 .267-1.478c.156-.368.426-.679.771-.887a2.259 2.259 0 0 1 1.167-.296 1.785 1.785 0 0 1 1.392.602c.416.603.605 1.332.535 2.059v5.807h2.871v-6.23a5.172 5.172 0 0 0-.546-2.523c-.31-.6-.8-1.09-1.403-1.404a4.06 4.06 0 0 0-1.819-.422 4.33 4.33 0 0 0-1.841.359 3.486 3.486 0 0 0-1.348 1.161Z" fill="url(#procure-tech_svg__b)"/></g><defs><radialGradient id="procure-tech_svg__b" cx="0" cy="0" r="1" gradientUnits="userSpaceOnUse" gradientTransform="rotate(167.32 69.889 8.778) scale(143.5 717.416)"><stop offset=".431" stop-color="#C8CEFF"/><stop offset="1" stop-color="#A098FF"/></radialGradient><clipPath id="procure-tech_svg__a"><path fill="#fff" transform="translate(0 2)" d="M0 0h140v28H0z"/></clipPath></defs></svg>