<svg viewBox="0 0 150 29" fill="none" xmlns="http://www.w3.org/2000/svg"><path d="m0 18.907 2.66-1.615c.865 1.75 2.462 2.759 4.324 2.759 1.597 0 2.794-.605 2.794-1.817 0-1.21-1.13-1.75-3.193-2.355-2.926-.74-5.92-1.48-5.92-4.844 0-3.028 2.328-4.777 5.72-4.777 3.26 0 5.19 1.614 6.32 3.297l-2.461 1.883c-.865-1.345-2.395-2.287-3.925-2.287-1.463 0-2.328.673-2.328 1.615 0 1.278 1.197 1.75 3.26 2.355 2.793.74 5.787 1.682 5.787 4.979 0 2.557-1.93 4.912-6.386 4.912-3.326-.135-5.455-1.75-6.652-4.105Zm13.77 3.7L19.423 6.46h3.325l5.655 16.149h-3.526l-1.197-3.566h-5.388l-1.198 3.566H13.77Zm5.32-6.19h3.726l-1.796-5.45h-.067l-1.862 5.45Zm11.043-9.89h5.787c3.393 0 6.519.942 6.519 5.18 0 4.307-3.326 5.249-6.519 5.249h-2.262v5.72h-3.525V6.525Zm3.459 7.603h2.395c2.195 0 2.993-.875 2.993-2.422 0-1.48-.798-2.355-2.993-2.355h-2.395v4.777Zm14.967 8.478 5.587-16.149h3.326l5.588 16.149h-3.526l-1.197-3.364h-5.388l-1.197 3.364h-3.193Zm5.255-6.056h3.725l-1.796-5.383h-.067l-1.862 5.383Zm11.308 6.056V11.169h3.326v2.019h-.133c.599-1.346 1.73-2.692 3.858-2.692h.133l-.066 3.23h-.865c-1.397 0-2.328.808-2.994 1.682v7.2h-3.259ZM74.435 9.15V6.459h3.325v2.692h-3.325Zm0 13.457V11.169h3.325v11.439h-3.325Zm9.312-1.413v1.413h-3.326V6.459h3.326v6.325c.665-1.076 1.863-2.018 3.526-2.018 2.594 0 4.39 2.018 4.39 5.988 0 3.97-1.862 5.988-4.457 5.988-1.463 0-2.794-.605-3.459-1.547Zm4.523-4.44c0-1.952-.731-3.163-2.261-3.163-.865 0-1.597.538-2.262 1.143v4.24c.665.74 1.397 1.076 2.328 1.076 1.464.067 2.195-1.144 2.195-3.297Zm4.79 2.825c0-2.691 1.995-4.172 7.317-4.575v-.202c0-.875-.466-1.413-1.596-1.413-1.464 0-2.728.605-3.792 1.413l-1.464-2.019c1.131-1.01 2.86-2.086 5.721-2.086 3.127 0 4.457 1.548 4.457 4.508v4.441c0 1.413 0 2.154.266 2.826h-3.459c-.133-.672-.266-1.076-.266-1.682-1.064 1.211-2.262 1.884-3.925 1.884-1.73.067-3.26-1.076-3.26-3.095Zm7.317-.471v-2.153c-2.66.27-3.925.942-3.925 2.018 0 .74.532 1.077 1.264 1.077 1.264.067 1.996-.336 2.661-.942Z" fill="url(#sap-ariba_svg__a)"/><path d="M145.211 28.125 130.177 0h3.326c.666 0 1.198.336 1.464.875L150 29h-3.326c-.599 0-1.197-.336-1.463-.875ZM117.007 29h3.326c.665 0 1.197-.336 1.463-.875l4.124-7.67-2.128-4.037L117.007 29Zm-6.453 0c.666 0 1.198-.336 1.464-.875l11.707-21.867 11.707 21.867c.266.539.799.875 1.464.875h3.326L125.188.875C124.922.336 124.39 0 123.725 0c-.599 0-1.197.336-1.463.875L107.228 29h3.326Z" fill="url(#sap-ariba_svg__b)"/><defs><linearGradient id="sap-ariba_svg__a" x1="0" y1="9" x2="150" y2="20" gradientUnits="userSpaceOnUse"><stop stop-color="#FFF1FF"/><stop offset=".489" stop-color="#FFF6FF"/><stop offset=".733" stop-color="#EAD5FF"/></linearGradient><linearGradient id="sap-ariba_svg__b" x1="0" y1="9" x2="150" y2="20" gradientUnits="userSpaceOnUse"><stop stop-color="#FFF1FF"/><stop offset=".489" stop-color="#FFF6FF"/><stop offset=".733" stop-color="#EAD5FF"/></linearGradient></defs></svg>