<svg viewBox="0 0 150 22" fill="none" xmlns="http://www.w3.org/2000/svg"><path fill-rule="evenodd" clip-rule="evenodd" d="M36.094 6.778a6.423 6.423 0 0 0-4.134 1.496V6.93h-3.77v14.758h3.921v-9.434a4.669 4.669 0 0 1 3.56-1.827 3.984 3.984 0 0 1 1.574.237V6.88c-.38-.067-.765-.101-1.151-.102Z" fill="url(#servicenow_svg__a)"/><path fill-rule="evenodd" clip-rule="evenodd" d="M1.9 17.185a6.13 6.13 0 0 0 4.008 1.46c1.056 0 1.87-.518 1.87-1.247 0-2.222-7.089-1.43-7.089-6.178 0-2.829 2.715-4.594 5.611-4.594a9.015 9.015 0 0 1 4.947 1.496l-1.835 2.855a4.909 4.909 0 0 0-2.805-1.004c-1.086 0-1.991.426-1.991 1.186 0 1.917 7.09 1.157 7.09 6.269 0 2.83-2.748 4.564-5.823 4.564A10.062 10.062 0 0 1 0 20.02l1.9-2.835Z" fill="url(#servicenow_svg__b)"/><path fill-rule="evenodd" clip-rule="evenodd" d="M26.516 14.172c0-4.108-2.863-7.546-6.91-7.546-4.344 0-7.12 3.59-7.12 7.699a7.395 7.395 0 0 0 2.152 5.53 7.297 7.297 0 0 0 5.514 2.137 7.891 7.891 0 0 0 6.004-2.646l-2.233-2.252a5.171 5.171 0 0 1-3.68 1.704 3.837 3.837 0 0 1-2.666-.961 3.872 3.872 0 0 1-1.289-2.534h10.137c.063-.374.093-.753.09-1.131Zm-10.047-1.764c.14-.731.531-1.39 1.104-1.862a3.168 3.168 0 0 1 2.034-.725 2.914 2.914 0 0 1 1.936.742 2.94 2.94 0 0 1 .96 1.845H16.47Z" fill="url(#servicenow_svg__c)"/><path fill-rule="evenodd" clip-rule="evenodd" d="m46.592 15.937 4.012-9.007h4.074L47.95 21.688h-2.715L38.507 6.93h4.072l4.013 9.007Z" fill="url(#servicenow_svg__d)"/><path fill-rule="evenodd" clip-rule="evenodd" d="M57.971 0a2.529 2.529 0 0 1 2.294 1.594 2.542 2.542 0 0 1-.575 2.743 2.515 2.515 0 0 1-2.74.528 2.522 2.522 0 0 1-1.122-.932A2.54 2.54 0 0 1 56.993.18c.31-.125.643-.186.978-.18Z" fill="url(#servicenow_svg__e)"/><path d="M59.931 6.93H56.01v14.758h3.921V6.93Z" fill="url(#servicenow_svg__f)"/><path fill-rule="evenodd" clip-rule="evenodd" d="M76.145 18.675a7.757 7.757 0 0 1-2.9 2.509 7.716 7.716 0 0 1-3.741.808 7.617 7.617 0 0 1-5.539-2.186 7.72 7.72 0 0 1-1.696-8.501c.4-.945.984-1.8 1.717-2.515a7.616 7.616 0 0 1 5.547-2.164 7.764 7.764 0 0 1 3.416.764 7.802 7.802 0 0 1 2.74 2.188l-2.776 2.464a4.22 4.22 0 0 0-3.379-1.765 3.913 3.913 0 0 0-2.825 1.186 3.95 3.95 0 0 0-1.121 2.862 3.908 3.908 0 0 0 1.148 2.895 3.874 3.874 0 0 0 2.895 1.12 4.267 4.267 0 0 0 1.99-.538 4.292 4.292 0 0 0 1.51-1.409l3.014 2.282Z" fill="url(#servicenow_svg__g)"/><path fill-rule="evenodd" clip-rule="evenodd" d="M90.392 19.345a7.923 7.923 0 0 1-2.717 1.976 7.89 7.89 0 0 1-3.287.67 7.297 7.297 0 0 1-5.512-2.138 7.394 7.394 0 0 1-2.15-5.53c0-4.108 2.775-7.698 7.12-7.698 4.041 0 6.907 3.438 6.907 7.546a6.51 6.51 0 0 1-.09 1.126H80.526a3.872 3.872 0 0 0 1.287 2.536c.734.65 1.688.994 2.666.963a5.156 5.156 0 0 0 3.68-1.704l2.233 2.253Zm-3.65-6.937a2.94 2.94 0 0 0-.96-1.845 2.913 2.913 0 0 0-1.937-.742 3.167 3.167 0 0 0-2.033.725 3.194 3.194 0 0 0-1.104 1.862h6.033Z" fill="url(#servicenow_svg__h)"/><path fill-rule="evenodd" clip-rule="evenodd" d="M92.313 21.688V6.93h3.77v1.186a6.422 6.422 0 0 1 4.133-1.49A6.58 6.58 0 0 1 105.285 9a7.483 7.483 0 0 1 1.508 5.177v7.511h-3.922v-7.824a3.59 3.59 0 0 0-.874-2.769 3.074 3.074 0 0 0-2.202-.821 4.65 4.65 0 0 0-3.56 1.826v9.588h-3.922Z" fill="url(#servicenow_svg__i)"/><path fill-rule="evenodd" clip-rule="evenodd" d="M116.892 6.626a8.561 8.561 0 0 0-4.828 1.481 8.626 8.626 0 0 0-3.166 3.95 8.669 8.669 0 0 0-.41 5.056 8.64 8.64 0 0 0 2.488 4.414 1.69 1.69 0 0 0 2.205.115 6.113 6.113 0 0 1 7.322 0 1.693 1.693 0 0 0 2.218-.13 8.647 8.647 0 0 0 2.472-4.39 8.667 8.667 0 0 0-.392-5.028 8.616 8.616 0 0 0-3.123-3.95 8.558 8.558 0 0 0-4.786-1.52m-.05 12.936a4.147 4.147 0 0 1-3.057-1.224 4.195 4.195 0 0 1-1.219-3.071c0-1.14.451-2.232 1.253-3.038a4.265 4.265 0 0 1 3.023-1.258c1.134 0 2.221.452 3.023 1.258a4.307 4.307 0 0 1 1.253 3.038 4.195 4.195 0 0 1-1.219 3.071 4.168 4.168 0 0 1-3.057 1.224Z" fill="url(#servicenow_svg__j)"/><path fill-rule="evenodd" clip-rule="evenodd" d="M133.154 21.688h-2.921L124.408 6.93h3.916l3.194 8.434 3.132-8.434h3.272l3.103 8.434 3.221-8.434h3.917l-5.824 14.758h-2.921l-3.132-8.403-3.132 8.403Z" fill="url(#servicenow_svg__k)"/><path d="M148.208 20.02h-.331v.625h-.282v-1.71h.687a.542.542 0 0 1 .507.339.545.545 0 0 1-.297.708l.387.666h-.307l-.364-.628Zm-.331-.252h.405a.287.287 0 0 0 0-.575h-.401l-.004.575Z" fill="url(#servicenow_svg__l)"/><path d="M148.168 18.234a1.576 1.576 0 0 1 1.46.979 1.598 1.598 0 0 1-.342 1.73 1.577 1.577 0 0 1-1.721.344 1.581 1.581 0 0 1-.975-1.466c.001-.42.167-.824.463-1.121a1.578 1.578 0 0 1 1.115-.466Zm0-.25a1.826 1.826 0 0 0-1.693 1.136 1.852 1.852 0 0 0 .397 2.006 1.832 1.832 0 0 0 1.997.399 1.842 1.842 0 0 0 .594-3.002 1.825 1.825 0 0 0-1.295-.54Z" fill="url(#servicenow_svg__m)"/><defs><linearGradient id="servicenow_svg__a" x1="0" y1="11" x2="150" y2="22" gradientUnits="userSpaceOnUse"><stop stop-color="#FFECFF"/><stop offset=".536" stop-color="#FFF1FF"/><stop offset="1" stop-color="#FFDCFF"/></linearGradient><linearGradient id="servicenow_svg__b" x1="0" y1="11" x2="150" y2="22" gradientUnits="userSpaceOnUse"><stop stop-color="#FFECFF"/><stop offset=".536" stop-color="#FFF1FF"/><stop offset="1" stop-color="#FFDCFF"/></linearGradient><linearGradient id="servicenow_svg__c" x1="0" y1="11" x2="150" y2="22" gradientUnits="userSpaceOnUse"><stop stop-color="#FFECFF"/><stop offset=".536" stop-color="#FFF1FF"/><stop offset="1" stop-color="#FFDCFF"/></linearGradient><linearGradient id="servicenow_svg__d" x1="0" y1="11" x2="150" y2="22" gradientUnits="userSpaceOnUse"><stop stop-color="#FFECFF"/><stop offset=".536" stop-color="#FFF1FF"/><stop offset="1" stop-color="#FFDCFF"/></linearGradient><linearGradient id="servicenow_svg__e" x1="0" y1="11" x2="150" y2="22" gradientUnits="userSpaceOnUse"><stop stop-color="#FFECFF"/><stop offset=".536" stop-color="#FFF1FF"/><stop offset="1" stop-color="#FFDCFF"/></linearGradient><linearGradient id="servicenow_svg__f" x1="0" y1="11" x2="150" y2="22" gradientUnits="userSpaceOnUse"><stop stop-color="#FFECFF"/><stop offset=".536" stop-color="#FFF1FF"/><stop offset="1" stop-color="#FFDCFF"/></linearGradient><linearGradient id="servicenow_svg__g" x1="0" y1="11" x2="150" y2="22" gradientUnits="userSpaceOnUse"><stop stop-color="#FFECFF"/><stop offset=".536" stop-color="#FFF1FF"/><stop offset="1" stop-color="#FFDCFF"/></linearGradient><linearGradient id="servicenow_svg__h" x1="0" y1="11" x2="150" y2="22" gradientUnits="userSpaceOnUse"><stop stop-color="#FFECFF"/><stop offset=".536" stop-color="#FFF1FF"/><stop offset="1" stop-color="#FFDCFF"/></linearGradient><linearGradient id="servicenow_svg__i" x1="0" y1="11" x2="150" y2="22" gradientUnits="userSpaceOnUse"><stop stop-color="#FFECFF"/><stop offset=".536" stop-color="#FFF1FF"/><stop offset="1" stop-color="#FFDCFF"/></linearGradient><linearGradient id="servicenow_svg__j" x1="0" y1="11" x2="150" y2="22" gradientUnits="userSpaceOnUse"><stop stop-color="#FFECFF"/><stop offset=".536" stop-color="#FFF1FF"/><stop offset="1" stop-color="#FFDCFF"/></linearGradient><linearGradient id="servicenow_svg__k" x1="0" y1="11" x2="150" y2="22" gradientUnits="userSpaceOnUse"><stop stop-color="#FFECFF"/><stop offset=".536" stop-color="#FFF1FF"/><stop offset="1" stop-color="#FFDCFF"/></linearGradient><linearGradient id="servicenow_svg__l" x1="0" y1="11" x2="150" y2="22" gradientUnits="userSpaceOnUse"><stop stop-color="#FFECFF"/><stop offset=".536" stop-color="#FFF1FF"/><stop offset="1" stop-color="#FFDCFF"/></linearGradient><linearGradient id="servicenow_svg__m" x1="0" y1="11" x2="150" y2="22" gradientUnits="userSpaceOnUse"><stop stop-color="#FFECFF"/><stop offset=".536" stop-color="#FFF1FF"/><stop offset="1" stop-color="#FFDCFF"/></linearGradient></defs></svg>