<svg viewBox="0 0 104 80" fill="none" xmlns="http://www.w3.org/2000/svg"><path fill-rule="evenodd" clip-rule="evenodd" d="M46.317 7.616c-3.277 5.161-4.836 7.787-4.836 8.147 0 .37 3.994 6.803 13.12 21.13 7.215 11.33 13.633 21.39 14.26 22.356l1.143 1.756 1.819-4.04c2.46-5.466 3.059-7.067 3.524-9.434.95-4.829.146-10.638-2.042-14.763-.615-1.16-20.686-31.58-21.39-32.42-.16-.192-.397-.348-.527-.348-.129 0-2.41 3.427-5.07 7.616Zm-8.7 25.737c-4.505.981-8.885 3.677-11.614 7.149C23.88 43.204.025 78.938.013 79.437L0 79.933l10.427.051c8.72.043 10.471.006 10.696-.226.148-.152 3.035-4.352 6.416-9.334 3.38-4.98 6.203-9.057 6.271-9.057.07-.001 1.27 1.986 2.67 4.416 2.833 4.917 4.12 6.782 5.748 8.335 3.532 3.366 7.852 5.306 12.7 5.705 1.126.093 12.615.11 25.53.04 21.683-.119 23.485-.154 23.542-.459.067-.36-10.512-17.323-11.157-17.89-.373-.328-2.067-.348-29.632-.348-16.08 0-29.232-.067-29.225-.149.006-.082 4.153-6.226 9.214-13.653 5.061-7.427 9.18-13.53 9.154-13.563-.12-.147-9.436-.83-11.162-.82-1.072.008-2.655.172-3.575.372Z" fill="url(#sign_svg__a)"/><defs><linearGradient id="sign_svg__a" x1="52" y1="0" x2="52" y2="80" gradientUnits="userSpaceOnUse"><stop offset=".25" stop-color="#96F"/><stop offset="1" stop-color="#96F" stop-opacity=".3"/></linearGradient></defs></svg>