<svg viewBox="0 0 106 32" fill="none" xmlns="http://www.w3.org/2000/svg"><path fill-rule="evenodd" clip-rule="evenodd" d="M13.561 8.729c0-.108.51-.896 1.581-2.444C16.012 5.028 16.758 4 16.8 4c.042 0 .12.047.172.104.23.252 6.792 9.378 6.993 9.726.715 1.238.978 2.98.668 4.43-.152.71-.348 1.19-1.152 2.83l-.595 1.212-.373-.527c-.206-.29-2.304-3.308-4.663-6.707-2.983-4.298-4.289-6.228-4.289-6.339Zm-5.06 7.422c.892-1.042 2.324-1.85 3.797-2.145.3-.06.818-.11 1.169-.111.564-.004 3.61.201 3.649.245.009.01-1.338 1.841-2.993 4.07-1.655 2.227-3.01 4.07-3.012 4.095-.002.025 4.297.045 9.554.045 9.012 0 9.566.006 9.688.104.21.17 3.669 5.26 3.647 5.367-.019.092-.608.102-7.697.138-4.222.021-7.978.016-8.346-.012-1.585-.12-2.997-.702-4.152-1.712-.532-.465-.953-1.025-1.879-2.5-.457-.73-.85-1.325-.873-1.325-.022 0-.945 1.223-2.05 2.717-1.105 1.495-2.049 2.755-2.097 2.8-.074.07-.647.081-3.497.068L0 27.98l.004-.149c.004-.15 7.803-10.87 8.497-11.68ZM88.242 17c0-5.337 3.682-9 8.892-9 5.211 0 8.867 3.532 8.867 9s-3.501 9-8.867 9c-5.365 0-8.892-3.663-8.892-9Zm14.829 0c0-3.82-2.385-6.305-5.936-6.305-3.552 0-5.937 2.485-5.937 6.305s2.385 6.305 5.937 6.305c3.551 0 5.936-2.485 5.936-6.305Zm-66.999-5.86h5.248c.04 0 .072.032.072.072v14.322c0 .04.033.073.072.073h2.76c.04 0 .072-.032.072-.073V11.213c0-.04.032-.073.072-.073h5.274c.04 0 .072-.033.072-.073V8.465a.073.073 0 0 0-.072-.073h-13.57a.073.073 0 0 0-.072.073v2.602c0 .04.032.072.072.072Zm24.796-2.747h-9.784a.073.073 0 0 0-.072.073v17.069c0 .04.032.073.072.073h10.018c.04 0 .072-.033.072-.073v-2.602a.073.073 0 0 0-.072-.073h-7.114a.073.073 0 0 1-.073-.073v-4.432c0-.04.033-.073.073-.073h6.621c.04 0 .073-.033.073-.073v-2.627a.073.073 0 0 0-.073-.073h-6.621a.073.073 0 0 1-.073-.073v-4.223c0-.04.033-.073.073-.073h6.88c.04 0 .072-.033.072-.073V8.466a.073.073 0 0 0-.072-.073ZM69.53 20.53c-.492-1.36-1.322-2.014-2.54-2.014h-1.483a.073.073 0 0 0-.072.073v6.944c0 .04-.032.073-.073.073h-2.758a.073.073 0 0 1-.073-.073V8.466c0-.04.033-.073.073-.073h4.93c3.422 0 5.47 1.857 5.47 4.63 0 1.972-1.015 3.576-2.977 4.273-.066.023-.064.115 0 .137 1.082.376 1.866 1.193 2.33 2.47l2.062 5.606a.073.073 0 0 1-.068.099h-3.007a.072.072 0 0 1-.068-.05l-1.746-5.027Zm-2.047-4.5c1.581 0 2.567-1.02 2.567-2.537 0-1.491-1.037-2.46-2.593-2.46h-1.95a.073.073 0 0 0-.072.073v4.852c0 .04.032.073.072.073h1.976Zm7.865 7.936a.075.075 0 0 0-.012.04v1.527c0 .04.032.074.072.074h12.74c.04 0 .072-.033.072-.073v-2.602a.073.073 0 0 0-.072-.073h-8.424a.073.073 0 0 1-.06-.113l.831-1.247 7.713-11.467a.075.075 0 0 0 .012-.041V8.466a.073.073 0 0 0-.072-.073H75.642a.073.073 0 0 0-.072.073v2.6c0 .04.032.074.072.074h8.19c.059 0 .093.065.06.113l-.857 1.273-7.687 11.44Z" fill="url(#terzo_svg__a)"/><defs><linearGradient id="terzo_svg__a" x1="106" y1="14" x2="-2.5" y2="16" gradientUnits="userSpaceOnUse"><stop offset=".159" stop-color="#EEA6FF"/><stop offset=".52" stop-color="#986DC0"/></linearGradient></defs></svg>