<svg width="18" height="16" viewBox="0 0 18 16" fill="none" xmlns="http://www.w3.org/2000/svg">
<path d="M18 2.45C17.325 2.75 16.65 2.975 15.9 3.05C16.65 2.6 17.25 1.85 17.55 1.025C16.8 1.475 16.05 1.775 15.225 1.925C14.55 1.175 13.575 0.724998 12.525 0.724998C10.5 0.724998 8.85 2.375 8.85 4.4C8.85 4.7 8.85 5 8.925 5.225C5.775 5.075 3.075 3.575 1.275 1.325C0.9 1.925 0.75 2.525 0.75 3.2C0.75 4.475 1.425 5.6 2.4 6.275C1.8 6.275 1.2 6.125 0.75 5.825C0.75 5.825 0.75 5.825 0.75 5.9C0.75 7.7 2.025 9.2 3.675 9.5C3.375 9.575 3.075 9.65 2.7 9.65C2.475 9.65 2.25 9.65 2.025 9.575C2.475 11.075 3.825 12.125 5.475 12.125C4.2 13.1 2.625 13.7 0.9 13.7C0.6 13.7 0.3 13.7 0 13.625C1.65 14.675 3.6 15.275 5.625 15.275C12.45 15.275 16.125 9.65 16.125 4.775C16.125 4.625 16.125 4.475 16.125 4.325C16.875 3.8 17.475 3.125 18 2.45Z" fill="#0E0A0F"/>
</svg>
