<svg viewBox="0 0 140 56" fill="none" xmlns="http://www.w3.org/2000/svg"><path d="M71.626.024c5.007-.172 10.047.58 14.769 2.255 7.104 2.492 13.453 7.06 18.099 12.976a39.92 39.92 0 0 1 5.097 8.467c.238.502.421 1.066.293 1.626-.156.94-.98 1.716-1.927 1.81-.985.144-2.002-.47-2.353-1.397-2.668-6.273-7.22-11.723-12.9-15.495a35.242 35.242 0 0 0-11.562-5.008 35.773 35.773 0 0 0-16.196-.004c-7.575 1.744-14.512 6.087-19.404 12.12a35.23 35.23 0 0 0-5.079 8.393c-.28.7-.921 1.25-1.67 1.373a2.227 2.227 0 0 1-2.013-.648 2.218 2.218 0 0 1-.482-2.325c3.554-8.397 10.134-15.45 18.224-19.649A39.95 39.95 0 0 1 71.626.024Z" fill="url(#workday_svg__a)"/><path d="M65.01 25.877c-.03-.436.383-.763.792-.773.532-.014 1.065-.01 1.598-.002.37.012.802.259.8.674.02 4.879-.011 9.76.017 14.641 1.978-2.198 3.973-4.384 5.958-6.576.391-.385.7-.969 1.308-1.02.82-.033 1.64-.013 2.461-.012.316-.028.669.262.558.599-.13.26-.368.439-.562.645-2.146 2.144-4.301 4.28-6.436 6.432 2.062 2.354 4.097 4.731 6.15 7.093.264.336.595.622.817.992.162.29-.107.642-.418.656-.682.038-1.365 0-2.049.017-.355-.009-.74.043-1.062-.14-.34-.195-.547-.544-.79-.837-1.981-2.493-3.949-4.995-5.937-7.484-.02 2.454-.006 4.907-.008 7.36-.007.282.05.623-.196.83-.392.379-.977.246-1.467.27-.435-.014-.944.08-1.297-.24-.197-.153-.248-.414-.24-.647.005-7.494-.003-14.987.003-22.478Z" fill="url(#workday_svg__b)"/><path d="M55.987 32.768c.994-.319 2.113-.38 3.086.041.341.16.738.502.584.923-.156.528-.29 1.063-.475 1.582-.137.373-.57.511-.934.438-.82-.14-1.624-.41-2.464-.383-.586-.014-1.127.3-1.528.708-.647.632-.982 1.516-1.132 2.393-.12.634-.085 1.282-.09 1.922l-.001 8.077c.038.443-.42.743-.82.759-.55.007-1.097.014-1.646-.005-.396-.02-.842-.31-.79-.755-.003-4.985-.006-9.968 0-14.952-.034-.496.516-.765.947-.719.54.036 1.279-.167 1.63.376.267.631.394 1.312.645 1.948.754-1.034 1.754-1.946 2.988-2.353Z" fill="url(#workday_svg__c)"/><path d="M0 33.149c.153-.175.33-.364.585-.346.745-.007 1.492-.024 2.236.01.378.012.639.343.694.695.732 2.976 1.451 5.956 2.18 8.933.214.92.474 1.83.614 2.764.144.84.172 1.693.309 2.535.188-1.202.356-2.41.68-3.584l2.86-10.657c.075-.406.456-.693.862-.693.829-.021 1.66-.007 2.488-.007.445-.02.92.239 1.028.694.712 2.59 1.415 5.185 2.125 7.777.43 1.68.994 3.33 1.237 5.052.067.475.133.95.23 1.421.268-2.706.965-5.34 1.538-7.99.473-2.108.936-4.219 1.414-6.327.071-.424.52-.637.914-.625.67-.004 1.342-.023 2.012.011.397.012.626.45.486.805-1.346 4.961-2.686 9.925-4.032 14.886a.869.869 0 0 1-.825.715c-1.039.034-2.08.008-3.12.013-.372.023-.766-.176-.831-.568-.93-3.411-1.842-6.829-2.763-10.243-.334-1.188-.47-2.419-.61-3.64-.17 1.087-.255 2.193-.545 3.261-.943 3.516-1.892 7.033-2.838 10.548-.106.57-.758.684-1.242.646-.967-.017-1.933.023-2.898-.017-.344 0-.61-.267-.671-.592C2.76 43.687 1.409 38.742.05 33.803c-.047-.216-.04-.436-.051-.653Z" fill="url(#workday_svg__d)"/><path d="M121.864 32.812a55.853 55.853 0 0 1 2.119 0c.429.006.833.3.968.71 1.218 3.181 2.428 6.37 3.645 9.553.254.646.432 1.32.546 2.004.503-1.888 1.172-3.726 1.76-5.59.655-2.014 1.31-4.03 1.968-6.046.097-.35.432-.59.787-.62.576-.042 1.156-.005 1.733-.02.337.004.739-.036.996.235.167.14.131.375.062.558-1.947 5.55-3.888 11.103-5.833 16.655-.338.925-.597 1.892-1.141 2.724-.781 1.267-2.046 2.18-3.436 2.673-.486.15-.987.483-1.509.297-.371-.095-.513-.48-.711-.763-.142-.257-.405-.495-.35-.815.025-.317.28-.575.579-.66.587-.202 1.183-.425 1.657-.838 1.154-.976 1.868-2.419 2.14-3.887-.184-.652-.525-1.252-.772-1.883-1.857-4.312-3.714-8.626-5.575-12.936-.112-.282-.277-.551-.309-.857.005-.337.39-.484.676-.494Z" fill="url(#workday_svg__e)"/><path d="M35.296 34.898c-1.012.188-1.936.818-2.45 1.715-.86 1.456-.958 3.212-.92 4.862.062 1.494.302 3.088 1.256 4.296.711.908 1.88 1.365 3.017 1.347 1.093.035 2.238-.335 2.98-1.166.946-1.034 1.25-2.47 1.38-3.824.058-1.33.084-2.683-.26-3.982-.275-1.097-.855-2.194-1.858-2.784-.934-.573-2.087-.626-3.145-.464Zm.428-2.367c1.833-.112 3.753.268 5.265 1.353 1.353.962 2.272 2.444 2.701 4.033.51 1.898.509 3.923.046 5.83-.436 1.758-1.455 3.416-2.993 4.415-1.644 1.09-3.708 1.373-5.637 1.14-1.643-.202-3.245-.922-4.389-2.132-1.344-1.408-2.012-3.348-2.15-5.265-.17-2.126.156-4.376 1.34-6.192.875-1.366 2.267-2.37 3.82-2.828.647-.202 1.322-.296 1.997-.354Z" fill="url(#workday_svg__f)"/><path d="M89.781 34.811c-1.004.065-1.974.642-2.422 1.559-.877 1.695-.894 3.667-.85 5.531.07 1.218.201 2.475.77 3.574.383.74 1.08 1.326 1.905 1.505 1.262.303 2.746.046 3.643-.95.864-.983 1.149-2.32 1.282-3.585.09-1.443.097-2.914-.262-4.326-.246-.944-.662-1.887-1.41-2.543-.718-.63-1.718-.874-2.656-.765Zm4.323-9.143c-.023-.383.368-.627.708-.656.545-.03 1.09-.016 1.636-.01.415-.004.88.305.82.766 0 7.528.001 15.055-.001 22.582.028.389-.355.69-.714.714-.434.023-.868.023-1.3-.007-.305-.02-.6-.215-.704-.506-.163-.49-.248-.997-.372-1.495-.602.816-1.377 1.537-2.34 1.895-1.375.506-2.905.514-4.317.17a5.222 5.222 0 0 1-3.34-2.599c-1.075-1.958-1.202-4.261-1.135-6.446.039-1.866.395-3.836 1.612-5.317.918-1.255 2.422-1.975 3.94-2.164 1.414-.206 2.947.031 4.117.887.553.39.996.911 1.392 1.457-.011-3.09-.008-6.18-.002-9.271Z" fill="url(#workday_svg__g)"/><path d="M109.316 34.905a3.381 3.381 0 0 0-1.4.62c-.815.635-1.22 1.642-1.436 2.62-.314 1.552-.31 3.155-.148 4.725.152 1.153.442 2.384 1.288 3.236.689.724 1.728.989 2.701.941 1.045.038 2.134-.351 2.808-1.172.843-1.02 1.081-2.376 1.204-3.653.078-1.502.079-3.04-.343-4.498-.267-.908-.754-1.811-1.577-2.329-.907-.595-2.054-.65-3.097-.49Zm-1.4-2.061a9.176 9.176 0 0 1 4.469-.09c1.362.315 2.637 1.079 3.474 2.21.885 1.16 1.332 2.598 1.518 4.031.161 1.105.114 2.224.116 3.338 0 2.009 0 4.018-.005 6.027.022.245-.133.462-.333.589-.337.208-.756.116-1.132.14-.422-.004-.977.033-1.207-.406-.224-.516-.271-1.091-.415-1.634-.566.688-1.152 1.397-1.971 1.794-1.248.617-2.707.58-4.042.32-1.635-.322-3.14-1.288-4.064-2.68-1.101-1.62-1.5-3.62-1.485-5.553-.013-1.885.356-3.833 1.404-5.427.839-1.304 2.184-2.248 3.673-2.66Z" fill="url(#workday_svg__h)"/><path d="M137.141 45.187c-.83.305-1.352 1.261-1.141 2.125.216 1.013 1.397 1.705 2.381 1.33.908-.277 1.48-1.311 1.199-2.224-.248-1.026-1.466-1.633-2.439-1.23Zm.115-.433c.492-.078 1.026-.083 1.483.145.778.353 1.337 1.187 1.253 2.055.064 1.035-.807 1.96-1.801 2.127-1.12.238-2.325-.573-2.553-1.689-.294-1.123.487-2.387 1.618-2.638Z" fill="url(#workday_svg__i)"/><path d="M137.487 46.015c-.002.235-.003.47 0 .707.206-.013.418 0 .622-.056.191-.08.172-.323.12-.486-.198-.193-.492-.143-.742-.165Zm-.622-.382c.595.033 1.262-.134 1.798.197.432.325.222 1.03-.266 1.18.141.372.337.717.515 1.071l-.668.012c-.16-.328-.317-.66-.47-.99l-.287-.006c-.002.331-.002.662-.002.992l-.623-.007c.001-.817-.001-1.634.003-2.45Z" fill="url(#workday_svg__j)"/><defs><linearGradient id="workday_svg__a" x1="0" y1="0" x2="140" y2="56" gradientUnits="userSpaceOnUse"><stop stop-color="#FFF6FF"/><stop offset=".552" stop-color="#FFF0FF"/><stop offset=".877" stop-color="#EBD1F8"/></linearGradient><linearGradient id="workday_svg__b" x1="0" y1="0" x2="140" y2="56" gradientUnits="userSpaceOnUse"><stop stop-color="#FFF6FF"/><stop offset=".552" stop-color="#FFF0FF"/><stop offset=".877" stop-color="#EBD1F8"/></linearGradient><linearGradient id="workday_svg__c" x1="0" y1="0" x2="140" y2="56" gradientUnits="userSpaceOnUse"><stop stop-color="#FFF6FF"/><stop offset=".552" stop-color="#FFF0FF"/><stop offset=".877" stop-color="#EBD1F8"/></linearGradient><linearGradient id="workday_svg__d" x1="0" y1="0" x2="140" y2="56" gradientUnits="userSpaceOnUse"><stop stop-color="#FFF6FF"/><stop offset=".552" stop-color="#FFF0FF"/><stop offset=".877" stop-color="#EBD1F8"/></linearGradient><linearGradient id="workday_svg__e" x1="0" y1="0" x2="140" y2="56" gradientUnits="userSpaceOnUse"><stop stop-color="#FFF6FF"/><stop offset=".552" stop-color="#FFF0FF"/><stop offset=".877" stop-color="#EBD1F8"/></linearGradient><linearGradient id="workday_svg__f" x1="0" y1="0" x2="140" y2="56" gradientUnits="userSpaceOnUse"><stop stop-color="#FFF6FF"/><stop offset=".552" stop-color="#FFF0FF"/><stop offset=".877" stop-color="#EBD1F8"/></linearGradient><linearGradient id="workday_svg__g" x1="0" y1="0" x2="140" y2="56" gradientUnits="userSpaceOnUse"><stop stop-color="#FFF6FF"/><stop offset=".552" stop-color="#FFF0FF"/><stop offset=".877" stop-color="#EBD1F8"/></linearGradient><linearGradient id="workday_svg__h" x1="0" y1="0" x2="140" y2="56" gradientUnits="userSpaceOnUse"><stop stop-color="#FFF6FF"/><stop offset=".552" stop-color="#FFF0FF"/><stop offset=".877" stop-color="#EBD1F8"/></linearGradient><linearGradient id="workday_svg__i" x1="0" y1="0" x2="140" y2="56" gradientUnits="userSpaceOnUse"><stop stop-color="#FFF6FF"/><stop offset=".552" stop-color="#FFF0FF"/><stop offset=".877" stop-color="#EBD1F8"/></linearGradient><linearGradient id="workday_svg__j" x1="0" y1="0" x2="140" y2="56" gradientUnits="userSpaceOnUse"><stop stop-color="#FFF6FF"/><stop offset=".552" stop-color="#FFF0FF"/><stop offset=".877" stop-color="#EBD1F8"/></linearGradient></defs></svg>